<svg xmlns="http://www.w3.org/2000/svg" width="18.969" height="20.047" viewBox="0 0 18.969 20.047">
  <g id="Account_Settings" data-name="Account &amp; Settings" transform="translate(-8.99 -6.873)">
    <path id="Path_34409" data-name="Path 34409" d="M31.061,28.107a2.24,2.24,0,1,1-.658-1.581,2.237,2.237,0,0,1,.658,1.581Z" transform="translate(-10.347 -11.21)" fill="none" stroke="#000" stroke-linecap="round" stroke-linejoin="round" stroke-width="1.5"/>
    <path id="Path_34410" data-name="Path 34410" d="M26.87,19.237l-1.752-1.681c.021-.216.034-.437.034-.658s-.013-.441-.034-.658l1.748-1.694a1.092,1.092,0,0,0,.187-1.336l-1.1-1.906A1.1,1.1,0,0,0,24.7,10.8l-2.335.678a6.314,6.314,0,0,0-1.136-.656l-.591-2.363a1.094,1.094,0,0,0-1.065-.832h-2.2A1.1,1.1,0,0,0,16.3,8.46l-.583,2.356a6.323,6.323,0,0,0-1.136.656l-2.339-.67a1.1,1.1,0,0,0-1.252.509l-1.1,1.907a1.1,1.1,0,0,0,.193,1.344l1.752,1.682c-.021.216-.034.433-.034.653s.013.445.034.662l-1.748,1.69A1.092,1.092,0,0,0,9.9,20.583L11,22.494a1.1,1.1,0,0,0,1.257.5l2.335-.674a6.561,6.561,0,0,0,1.136.653l.591,2.365a1.1,1.1,0,0,0,1.066.828h2.2a1.1,1.1,0,0,0,1.066-.832l.583-2.36a6.283,6.283,0,0,0,1.132-.656l2.343.67a1.1,1.1,0,0,0,1.253-.508l1.1-1.906a1.1,1.1,0,0,0-.192-1.341Zm-8.4-.1a2.237,2.237,0,1,1,.857-.17,2.237,2.237,0,0,1-.857.17Z" transform="translate(0)" fill="none" stroke="#000" stroke-linecap="round" stroke-linejoin="round" stroke-width="1.5"/>
    <path id="Path_34411" data-name="Path 34411" d="M31.061,28.107a2.24,2.24,0,1,1-.658-1.581,2.237,2.237,0,0,1,.658,1.581Z" transform="translate(-10.347 -11.21)" fill="none" stroke="#426ab2" stroke-linecap="round" stroke-linejoin="round" stroke-width="1.5"/>
  </g>
</svg>
