<svg xmlns="http://www.w3.org/2000/svg" width="17.502" height="18.086" viewBox="0 0 17.502 18.086">
  <g id="Ad_Placement" data-name="Ad Placement" transform="translate(-20 -19)">
    <path id="Path_35515" data-name="Path 35515" d="M35.993,40.258a.884.884,0,0,0,.286.648.865.865,0,0,0,.674.222.907.907,0,0,0,.788-.922V37.994l3.419,3.419a.982.982,0,0,0,.709.283.84.84,0,0,0,.607-.268.871.871,0,0,0-.029-1.2L38.98,36.757h2.264a.884.884,0,0,0,.648-.286.851.851,0,0,0,.222-.674.907.907,0,0,0-.922-.788H38.032a2.044,2.044,0,0,0-2.042,2.042v3.209Z" transform="translate(-11.326 -11.34)"/>
    <path id="Path_35516" data-name="Path 35516" d="M33.967,19.77A2.609,2.609,0,0,0,32.112,19h-8.9A3.211,3.211,0,0,0,20,22.209V33.877a3.211,3.211,0,0,0,3.209,3.209H34.294A3.211,3.211,0,0,0,37.5,33.877V24.394a2.61,2.61,0,0,0-.77-1.858l-2.765-2.768Zm1.785,14.107a1.459,1.459,0,0,1-1.459,1.459H23.209a1.459,1.459,0,0,1-1.459-1.459V22.209a1.459,1.459,0,0,1,1.459-1.459h8.9a.867.867,0,0,1,.618.257L35.5,23.775a.867.867,0,0,1,.257.618Z" transform="translate(0)"/>
  </g>
</svg>
