<svg xmlns="http://www.w3.org/2000/svg" width="21.932" height="24.337" viewBox="0 0 21.932 24.337">
  <g id="Ad_Priority" data-name="Ad Priority" transform="translate(0.25 2.086)">
    <g id="group-svgrepo-com" transform="translate(0 3.053)">
      <g id="Group_40583" data-name="Group 40583">
        <path id="Path_34338" data-name="Path 34338" d="M159.065,39.128v1.517a.613.613,0,1,0,1.226,0V39.128a1.666,1.666,0,0,0-.613-1.3,18.217,18.217,0,0,0-2.984-1.95V34.337a1.605,1.605,0,0,0,.446-1.114V31.006a2.61,2.61,0,0,0-2.606-2.606h-.477a2.61,2.61,0,0,0-2.606,2.606v2.216a1.6,1.6,0,0,0,.446,1.114v1.535a18.216,18.216,0,0,0-2.984,1.95,1.675,1.675,0,0,0-.613,1.3v1.517a.613.613,0,1,0,1.226,0V39.122a.459.459,0,0,1,.167-.353,16.322,16.322,0,0,1,3.033-1.944.716.716,0,0,0,.4-.638V34.052a.614.614,0,0,0-.272-.508.4.4,0,0,1-.173-.322V31.006a1.382,1.382,0,0,1,1.38-1.38h.477a1.382,1.382,0,0,1,1.38,1.38v2.216a.381.381,0,0,1-.173.322.6.6,0,0,0-.272.508v2.136a.709.709,0,0,0,.4.638,16.907,16.907,0,0,1,3.033,1.944A.462.462,0,0,1,159.065,39.128Z" transform="translate(-143.578 -33.289)" fill="#5367f9" stroke="#5367f9" stroke-width="0.5"/>
        <path id="Path_34339" data-name="Path 34339" d="M301.755,257.637a.423.423,0,0,0-.192.359V259.5a.5.5,0,0,0,.28.45,12.214,12.214,0,0,1,2.142,1.373.324.324,0,0,1,.118.249v1.071a.433.433,0,1,0,.866,0v-1.071a1.176,1.176,0,0,0-.433-.918,12.862,12.862,0,0,0-2.107-1.377v-1.089a1.133,1.133,0,0,0,.315-.787v-1.565A1.843,1.843,0,0,0,300.9,254h-.337a1.843,1.843,0,0,0-1.841,1.841v1.565a1.133,1.133,0,0,0,.315.787v1.089a12.864,12.864,0,0,0-2.107,1.377,1.189,1.189,0,0,0-.433.918v1.071a.433.433,0,1,0,.866,0v-1.071a.324.324,0,0,1,.118-.249,11.523,11.523,0,0,1,2.142-1.373.506.506,0,0,0,.28-.45V258a.434.434,0,0,0-.192-.359.28.28,0,0,1-.122-.227v-1.565a.976.976,0,0,1,.975-.975h.337a.976.976,0,0,1,.975.975v1.565A.269.269,0,0,1,301.755,257.637Z" transform="translate(-283.538 -244.137)" fill="#2c2f33" stroke="#2c2f33" stroke-width="0.5"/>
        <path id="Path_34340" data-name="Path 34340" d="M7.6,261.676v1.071a.433.433,0,1,0,.866,0v-1.071a1.176,1.176,0,0,0-.433-.918,12.863,12.863,0,0,0-2.107-1.377v-1.089a1.133,1.133,0,0,0,.315-.787v-1.565A1.843,1.843,0,0,0,4.4,254.1H4.066a1.843,1.843,0,0,0-1.841,1.841v1.565a1.133,1.133,0,0,0,.315.787v1.089a12.863,12.863,0,0,0-2.107,1.377,1.183,1.183,0,0,0-.433.918v1.071a.433.433,0,1,0,.866,0v-1.071a.324.324,0,0,1,.118-.249,11.524,11.524,0,0,1,2.142-1.373.493.493,0,0,0,.28-.45V258.1a.434.434,0,0,0-.192-.359.28.28,0,0,1-.122-.227v-1.565a.976.976,0,0,1,.975-.975H4.4a.976.976,0,0,1,.975.975v1.565a.269.269,0,0,1-.122.227.423.423,0,0,0-.192.359V259.6a.5.5,0,0,0,.28.45,11.939,11.939,0,0,1,2.142,1.373A.317.317,0,0,1,7.6,261.676Z" transform="translate(0 -244.233)" fill="#2c2f33" stroke="#2c2f33" stroke-width="0.5"/>
      </g>
    </g>
  </g>
</svg>
