<svg xmlns="http://www.w3.org/2000/svg" width="18.734" height="20.674" viewBox="0 0 18.734 20.674">
  <g id="Admin_Users" data-name="Admin Users" transform="translate(-149.922 4.5)">
    <path id="Path_47002" data-name="Path 47002" d="M24.21,5.245h0a13.387,13.387,0,0,1-6.753-2.353,1.679,1.679,0,0,0-2.157,0A13.65,13.65,0,0,1,8.525,5.245,1.681,1.681,0,0,0,7,6.922c0,12.2,8.344,15.968,8.692,16.121a1.81,1.81,0,0,0,1.351,0c.349-.152,8.692-3.921,8.692-16.121A1.681,1.681,0,0,0,24.21,5.245ZM16.346,21.562a11.624,11.624,0,0,1-3.268-2.418l.218-1.9a2.07,2.07,0,0,1,2.048-1.83H17.37a2.054,2.054,0,0,1,2.048,1.83l.218,1.9A10.941,10.941,0,0,1,16.346,21.562Zm.022-8.1a1.9,1.9,0,1,1,1.9-1.9A1.9,1.9,0,0,1,16.367,13.458ZM21.095,17.4l-.044-.349a3.721,3.721,0,0,0-2.222-2.963,3.529,3.529,0,1,0-5.991-2.527,3.5,3.5,0,0,0,1.067,2.527,3.689,3.689,0,0,0-2.222,2.963l-.044.349A17.791,17.791,0,0,1,8.7,6.9a15.958,15.958,0,0,0,7.712-2.723A15.02,15.02,0,0,0,24.057,6.9l.044.044A17.614,17.614,0,0,1,21.095,17.4Z" transform="translate(142.922 -7)"/>
  </g>
</svg>
