<svg xmlns="http://www.w3.org/2000/svg" width="24.254" height="20.109" viewBox="0 0 24.254 20.109">
  <g id="Ads" transform="matrix(0.966, -0.259, 0.259, 0.966, -10.266, -13.543)">
    <g id="Group_43846" data-name="Group 43846" transform="translate(5 21)">
      <path id="Path_35517" data-name="Path 35517" d="M20.11,973.368a.646.646,0,0,0-.11.033L5.5,978.225a.778.778,0,0,0-.5.752v3.434a.778.778,0,0,0,.5.752l2.009.67,1.016,4.129a.719.719,0,0,0,.679.58h2.338a.678.678,0,0,0,.558-.307.86.86,0,0,0,.121-.683l-.577-2.346L20,987.986a.642.642,0,0,0,.617-.125.82.82,0,0,0,.281-.628V981.74a.706.706,0,1,0-1.4,0v4.439L6.4,981.83v-2.273L19.5,975.208v3.916a.706.706,0,1,0,1.4,0v-4.971a.829.829,0,0,0-.235-.593A.653.653,0,0,0,20.11,973.368Zm4.932,1.562a.655.655,0,0,0-.307.123l-1.87,1.308a.842.842,0,0,0-.223,1.083.66.66,0,0,0,.968.249l1.87-1.308a.831.831,0,0,0,.308-.926.7.7,0,0,0-.746-.529Zm-1.878,4.979a.758.758,0,0,0-.665.826.737.737,0,0,0,.738.744h2.1a.79.79,0,0,0,0-1.57h-2.1a.608.608,0,0,0-.073,0Zm.044,3.654a.723.723,0,0,0-.657.584.828.828,0,0,0,.314.871l1.87,1.308a.66.66,0,0,0,.968-.249.843.843,0,0,0-.223-1.083l-1.87-1.308a.646.646,0,0,0-.4-.123Zm-14.1.8.95.311.57,2.3H9.749Z" transform="translate(-5 -973.362)"/>
    </g>
  </g>
</svg>
