<svg xmlns="http://www.w3.org/2000/svg" width="19.848" height="19.848" viewBox="0 0 19.848 19.848">
  <g id="Blocked_Freezed" data-name="Blocked/Freezed" transform="translate(-5 -5)">
    <g id="Group_44313" data-name="Group 44313" transform="translate(5 5)">
      <path id="Path_46950" data-name="Path 46950" d="M21.945,7.9a.877.877,0,0,0-.1-.08A9.917,9.917,0,0,0,7.823,21.847.631.631,0,0,0,8,22.025,9.917,9.917,0,0,0,22.024,8,.869.869,0,0,0,21.945,7.9ZM14.924,6.764a8.119,8.119,0,0,1,5.109,1.8L8.568,20.032A8.154,8.154,0,0,1,14.924,6.764Zm0,16.319a8.119,8.119,0,0,1-5.109-1.8L21.28,9.815a8.154,8.154,0,0,1-6.356,13.268Z" transform="translate(-5 -5)"/>
    </g>
  </g>
</svg>
