<svg xmlns="http://www.w3.org/2000/svg" width="15.751" height="19.175" viewBox="0 0 15.751 19.175">
  <path id="export-bold-svgrepo-com" d="M39.554,9.347a1.027,1.027,0,0,1,0-1.453l3.6-3.594a1.027,1.027,0,0,1,1.453,0l3.6,3.594a1.027,1.027,0,1,1-1.453,1.453L44.9,7.506v7.108a1.027,1.027,0,1,1-2.054,0V7.506L41.006,9.348A1.027,1.027,0,0,1,39.554,9.347ZM50.039,11.19H47.984a1.027,1.027,0,0,0,0,2.054H49.7V21.12H38.054V13.245h1.712a1.027,1.027,0,1,0,0-2.054H37.712A1.714,1.714,0,0,0,36,12.9v8.56a1.714,1.714,0,0,0,1.712,1.712H50.039a1.714,1.714,0,0,0,1.712-1.712V12.9a1.714,1.714,0,0,0-1.712-1.712Z" transform="translate(-36 -4)"/>
</svg>
