<svg xmlns="http://www.w3.org/2000/svg" width="25.336" height="35.97" viewBox="0 0 25.336 35.97">
  <path id="flag-2-svgrepo-com" d="M5,35.47V22.082m0,0,4.135-.827a14.52,14.52,0,0,1,8.241.757,14.522,14.522,0,0,0,8.915.6l.168-.042a1.506,1.506,0,0,0,.926-2.235l-2.612-4.353a5.564,5.564,0,0,1-.925-1.947,2.523,2.523,0,0,1,0-.651,5.564,5.564,0,0,1,.925-1.947l2.14-3.566a1.222,1.222,0,0,0-1.344-1.814,12.217,12.217,0,0,1-7.5-.509l-.692-.277A14.521,14.521,0,0,0,9.135,4.52L5,5.347M5,22.082V17.062M5,5.347V2M5,5.347v5.021" transform="translate(-3.529 -0.75)" fill="none" stroke="#fff" stroke-linecap="round" stroke-width="2.5"/>
</svg>
