<svg xmlns="http://www.w3.org/2000/svg" width="11.479" height="10.745" viewBox="0 0 11.479 10.745">
  <g id="Group_21611" data-name="Group 21611" transform="translate(0.25)">
    <g id="Post" transform="translate(0 2.495)">
      <path id="Path_77" data-name="Path 77" d="M130.787,99.168h-7.472a.78.78,0,0,0-.578.264.954.954,0,0,0-.239.639v6.194a.954.954,0,0,0,.239.639.78.78,0,0,0,.578.264h7.472a.78.78,0,0,0,.578-.264.954.954,0,0,0,.239-.639v-6.194a.954.954,0,0,0-.239-.639A.78.78,0,0,0,130.787,99.168Zm-7.472.774h7.472a.111.111,0,0,1,.083.038.136.136,0,0,1,.034.091v4.9l-.747-.619a1.192,1.192,0,0,0-1.541,0l-.967.8h.2a.482.482,0,0,1-.358,0l-1.182-1.471a1.24,1.24,0,0,0-.889-.468,1.213,1.213,0,0,0-.928.365l-1.294,1.29v-4.8a.123.123,0,0,1,.117-.129Zm7.472,6.452h-7.472a.123.123,0,0,1-.117-.129v-.346l1.76-1.765a.521.521,0,0,1,.42-.165.558.558,0,0,1,.406.212l1.186,1.461h0a.789.789,0,0,0,.528.3.758.758,0,0,0,.57-.178l.967-.8a.54.54,0,0,1,.7,0l1.167.965v.32a.123.123,0,0,1-.117.129Z" transform="translate(-122.498 -99.168)" fill="#fff" stroke="#fff" stroke-width="0.5"/>
      <path id="Path_78" data-name="Path 78" d="M427.378,169.944a.774.774,0,1,1-.774-.774.774.774,0,0,1,.774.774" transform="translate(-419.875 -167.622)" fill="#fff"/>
    </g>
    <path id="Rectangle_7295" data-name="Rectangle 7295" d="M1.248,1.123a.125.125,0,0,0-.125.125V2.591l5.031.152c0,.069.186,4.868.255,4.868H7.486a.125.125,0,0,0,.125-.125V1.248a.125.125,0,0,0-.125-.125H1.248M1.248,0H7.486A1.248,1.248,0,0,1,8.734,1.248V7.486A1.248,1.248,0,0,1,7.486,8.734H6.154C6.157,8.1,6,3.6,6,2.907L0,2.6V1.248A1.248,1.248,0,0,1,1.248,0Z" transform="translate(2.496)" fill="#fff"/>
  </g>
</svg>
