<svg xmlns="http://www.w3.org/2000/svg" width="15.55" height="15.559" viewBox="0 0 15.55 15.559">
  <g id="Group_21614" data-name="Group 21614" transform="translate(0)">
    <g id="Path_34374" data-name="Path 34374" transform="translate(15.55 0) rotate(90)" fill="none">
      <path d="M4.592,1.97a3.563,3.563,0,0,1,6.374,0l4.212,8.423a3.563,3.563,0,0,1-3.187,5.157H3.568A3.563,3.563,0,0,1,.381,10.393Z" stroke="none"/>
      <path d="M 7.77944803237915 2.000004768371582 C 7.488958358764648 2.000004768371582 6.771207809448242 2.08420467376709 6.381248474121094 2.864134788513184 L 2.169628143310547 11.28737449645996 C 1.817837715148926 11.99095439910889 2.100297927856445 12.58538436889648 2.238058090209961 12.80830478668213 C 2.375827789306641 13.03121471405029 2.781198501586914 13.54969501495361 3.567828178405762 13.54969501495361 L 11.99105834960938 13.54969501495361 C 12.7776985168457 13.54969501495361 13.18306827545166 13.03121471405029 13.32083797454834 12.80829429626465 C 13.45859813690186 12.58538436889648 13.74105834960938 11.99095439910889 13.38926792144775 11.28737449645996 L 9.177648544311523 2.864134788513184 C 8.787677764892578 2.08420467376709 8.069938659667969 2.000004768371582 7.77944803237915 2.000004768371582 M 7.779444217681885 1.9073486328125e-06 C 9.044685363769531 1.9073486328125e-06 10.30992794036865 0.6565694808959961 10.96649742126465 1.969704627990723 L 15.1781177520752 10.3929443359375 C 16.36271858215332 12.76213455200195 14.63990783691406 15.54969501495361 11.99105834960938 15.54969501495361 L 3.567828178405762 15.54969501495361 C 0.9189882278442383 15.54969501495361 -0.8038225173950195 12.76213455200195 0.3807783126831055 10.3929443359375 L 4.592397689819336 1.969704627990723 C 5.248963356018066 0.6565694808959961 6.514203071594238 1.9073486328125e-06 7.779444217681885 1.9073486328125e-06 Z" stroke="none" fill="#fff"/>
    </g>
    <g id="ok-hand-svgrepo-com" transform="translate(3.097 3.796)">
      <g id="line" transform="translate(0 0)">
        <path id="Path_344" data-name="Path 344" d="M15.43,39.645V38.587a.459.459,0,0,1,.91-.121.47.47,0,0,1,0,.121v.7" transform="translate(-15.33 -34.033)" fill="none" stroke="#fff" stroke-linecap="round" stroke-linejoin="round" stroke-width="1"/>
        <path id="Path_345" data-name="Path 345" d="M20.848,39.176a2.538,2.538,0,0,1,.141.839,2.608,2.608,0,0,1-2.608,2.608,3.382,3.382,0,0,1-2.015-.754c-.247-.242-.487-.475-.64-.656a.853.853,0,0,1-.2-.575" transform="translate(-15.42 -34.997)" fill="none" stroke="#fff" stroke-linecap="round" stroke-linejoin="round" stroke-width="1"/>
        <path id="Path_346" data-name="Path 346" d="M23.916,42.216c-.172.5-.162.8-.429.933a6.078,6.078,0,0,0-1.03-.253" transform="translate(-21.448 -37.643)" fill="none" stroke="#fff" stroke-linecap="round" stroke-linejoin="round" stroke-width="1"/>
        <path id="Path_347" data-name="Path 347" d="M16.42,28.873l-1.154.169a.459.459,0,1,1-.242-.885.467.467,0,0,1,.121-.016l1.31-.191a.493.493,0,0,1,.243.014" transform="translate(-14.686 -25.223)" fill="none" stroke="#fff" stroke-linecap="round" stroke-linejoin="round" stroke-width="1"/>
        <line id="Line_71" data-name="Line 71" x1="0.734" y1="0.923" transform="translate(1.734 3.65)" fill="none" stroke="#fff" stroke-linecap="round" stroke-linejoin="round" stroke-width="1"/>
        <path id="Path_348" data-name="Path 348" d="M30.17,28.12a.46.46,0,0,1,.249.118.41.41,0,0,1,.077.094l.815.966" transform="translate(-28.158 -25.378)" fill="none" stroke="#fff" stroke-linecap="round" stroke-linejoin="round" stroke-width="1"/>
        <path id="Path_349" data-name="Path 349" d="M26.129,11.272l-.693-1.187a.459.459,0,0,1,.732-.555c.021.027,1.054,1.763,1.392,2.33h0" transform="translate(-23.958 -9.046)" fill="none" stroke="#fff" stroke-linecap="round" stroke-linejoin="round" stroke-width="1"/>
        <path id="Path_350" data-name="Path 350" d="M42.4,28.68" transform="translate(-38.799 -25.865)" fill="none" stroke="#fff" stroke-linecap="round" stroke-linejoin="round" stroke-width="1"/>
        <path id="Path_351" data-name="Path 351" d="M39.529,10.159c-.185-.735-.733-2.812-.745-2.842a.458.458,0,1,0-.859.321l.223.878" transform="translate(-34.88 -7.017)" fill="none" stroke="#fff" stroke-linecap="round" stroke-linejoin="round" stroke-width="1"/>
        <path id="Path_352" data-name="Path 352" d="M49.735,14.6a.459.459,0,1,1,.913-.09c0,.04-.039,2.773-.039,2.773a.431.431,0,0,1,0,.071" transform="translate(-45.179 -13.174)" fill="none" stroke="#fff" stroke-linecap="round" stroke-linejoin="round" stroke-width="1"/>
        <line id="Line_72" data-name="Line 72" x2="0.465" y2="0.735" transform="translate(3.527 2.7)" fill="none" stroke="#fff" stroke-linecap="round" stroke-linejoin="round" stroke-width="1"/>
      </g>
    </g>
  </g>
</svg>
