<svg id="Group_44333" data-name="Group 44333" xmlns="http://www.w3.org/2000/svg" width="19.083" height="22.004" viewBox="0 0 19.083 22.004">
  <path id="Path_46970" data-name="Path 46970" d="M29.635,12.876,25.207,8.448A1.828,1.828,0,0,0,23.883,7.9H12.972A1.851,1.851,0,0,0,11.1,9.772V28.033A1.851,1.851,0,0,0,12.972,29.9H28.311a1.851,1.851,0,0,0,1.872-1.872V14.2A1.756,1.756,0,0,0,29.635,12.876Zm-.822,15.157a.507.507,0,0,1-.5.5H12.972a.507.507,0,0,1-.5-.5V9.772a.507.507,0,0,1,.5-.5H23.883a.518.518,0,0,1,.365.137l4.428,4.428a.518.518,0,0,1,.137.365Z" transform="translate(-11.1 -7.9)"/>
  <path id="Path_46971" data-name="Path 46971" d="M19.526,35.57h5.433a.686.686,0,0,0,0-1.37H19.526A.686.686,0,0,0,19.526,35.57Z" transform="translate(-15.326 -23.193)"/>
  <path id="Path_46972" data-name="Path 46972" d="M30.263,39.7H19.626a.686.686,0,0,0,0,1.37H30.263A.686.686,0,0,0,30.263,39.7Z" transform="translate(-15.38 -25.526)"/>
  <path id="Path_46973" data-name="Path 46973" d="M26.83,45.3h-7.3a.686.686,0,0,0,0,1.37h7.3A.686.686,0,0,0,26.83,45.3Z" transform="translate(-15.326 -27.959)"/>
  <path id="Path_46974" data-name="Path 46974" d="M21.908,24.821l2.465-2.465,2.465,2.465a.662.662,0,0,0,.959,0l3.013-3.013c.639-.639-.365-1.6-.959-.959L27.34,23.36l-2.465-2.465a.662.662,0,0,0-.959,0l-2.967,2.967A.678.678,0,1,0,21.908,24.821Z" transform="translate(-17.143 -16.823)"/>
</svg>
