<svg xmlns="http://www.w3.org/2000/svg" width="31.816" height="31.841" viewBox="0 0 31.816 31.841">
  <g id="Group_44374" data-name="Group 44374" transform="translate(124.657 -342.78)">
    <path id="Path_46980" data-name="Path 46980" d="M-101.031,345.884a2.776,2.776,0,0,0-2.823-2.8q-8.833-.009-17.672-.006a2.784,2.784,0,0,0-2.829,2.829q-.009,11.357,0,22.713c0,.424.162.586.58.586h11.491c.368,0,.586-.174.586-.461s-.212-.467-.58-.467c-.075-.006-.156,0-.231,0H-123.42v-.361q0-10.917,0-21.841a1.878,1.878,0,0,1,2.056-2.063h15.454a3.133,3.133,0,0,0-.723,2.169c.012,2.536.006,5.072.006,7.608a2.273,2.273,0,0,0,.006.293.453.453,0,0,0,.467.424.441.441,0,0,0,.449-.418,2.553,2.553,0,0,0,.012-.436V351.48h4.075c.417,0,.586-.162.586-.579C-101.031,349.23-101.018,347.56-101.031,345.884Zm-.935,4.642h-3.726c0-1.614-.025-3.2.012-4.8a1.828,1.828,0,0,1,1.838-1.714,1.825,1.825,0,0,1,1.863,1.714C-101.94,347.324-101.965,348.913-101.965,350.526Z" transform="translate(0)"/>
    <path id="Path_46980_-_Outline" data-name="Path 46980 - Outline" d="M-121.527,342.78h0c5.793,0,11.784,0,17.672.006a3.115,3.115,0,0,1,2.214.892,3.11,3.11,0,0,1,.909,2.2c.008,1.119.006,2.253,0,3.35q0,.835,0,1.669a.782.782,0,0,1-.886.88h-3.775v1.875c0,.034,0,.067,0,.1a2,2,0,0,1-.017.379.738.738,0,0,1-.724.673h-.006a.753.753,0,0,1-.781-.689,1.784,1.784,0,0,1-.009-.257c0-.023,0-.047,0-.07q0-.951,0-1.9c0-1.87,0-3.8-.007-5.705a3.577,3.577,0,0,1,.446-1.87h-14.877a1.587,1.587,0,0,0-1.756,1.763c0,4.857,0,9.791,0,14.563q0,3.639,0,7.278v.061h10.612l.154,0c.032,0,.061,0,.088,0a.774.774,0,0,1,.868.767.786.786,0,0,1-.886.761h-11.491a.782.782,0,0,1-.88-.886q0-3.786,0-7.571c0-4.963,0-10.1,0-15.143a3.114,3.114,0,0,1,.9-2.225A3.139,3.139,0,0,1-121.527,342.78Zm19.91,8.4c.251,0,.286-.034.286-.28q0-.835,0-1.67c0-1.1.006-2.228,0-3.344a2.47,2.47,0,0,0-2.523-2.5c-5.888-.006-11.878-.006-17.671-.006a2.481,2.481,0,0,0-2.53,2.529c0,5.047,0,10.179,0,15.142q0,3.786,0,7.571c0,.256.029.286.28.286h11.491c.286,0,.286-.117.286-.161s0-.167-.28-.167h-.025a1.13,1.13,0,0,0-.122,0h-11.3v-.661q0-3.639,0-7.278c0-4.772,0-9.707,0-14.564a2.168,2.168,0,0,1,2.356-2.362h16.1l-.415.493a2.824,2.824,0,0,0-.652,1.973c.009,1.9.008,3.839.007,5.71q0,.951,0,1.9c0,.027,0,.053,0,.08a1.276,1.276,0,0,0,0,.173v.011a.156.156,0,0,0,.146.154h.006c.129-.01.156-.056.168-.154l0-.015a1.477,1.477,0,0,0,.01-.271c0-.038,0-.077,0-.114V351.18Zm-2.213-7.465a2.113,2.113,0,0,1,2.151,2.008c.027,1.141.022,2.3.017,3.423q0,.688,0,1.381v.3h-4.326v-.3q0-.693,0-1.381c0-1.122-.01-2.282.017-3.425a2.116,2.116,0,0,1,2.136-2.007Zm1.564,6.512q0-.543,0-1.083c0-1.118.01-2.274-.016-3.408a1.53,1.53,0,0,0-1.551-1.421h-.01a1.531,1.531,0,0,0-1.54,1.42c-.027,1.135-.021,2.291-.016,3.409q0,.54,0,1.083Z" transform="translate(0)"/>
    <path id="Path_46981" data-name="Path 46981" d="M-89.449,378.387q-1.809-1.82-3.625-3.625a.528.528,0,0,0-.819.029c-.161.154-.3.329-.431.468-.373-.358-.694-.672-1.016-.987a7.138,7.138,0,0,0-.848-10.057,7.11,7.11,0,0,0-9.575.38,7.112,7.112,0,0,0-.5,9.575,7.125,7.125,0,0,0,10.1.928c.329.314.65.636.987.957-.073.08-.153.161-.227.241s-.168.161-.241.249a.52.52,0,0,0-.007.811c1.191,1.206,2.4,2.4,3.6,3.6a.516.516,0,0,0,.811.007c.607-.585,1.206-1.184,1.791-1.791A.511.511,0,0,0-89.449,378.387Zm-11.343-2.7a6.023,6.023,0,0,1-5.993-6.052,6.016,6.016,0,0,1,6.023-5.986,6.025,6.025,0,0,1,6.015,6.037A6.028,6.028,0,0,1-100.793,375.682Zm9.158,4.071c-.928-.928-1.871-1.878-2.8-2.807.307-.307.643-.643.965-.957.928.936,1.864,1.886,2.792,2.814C-90.991,379.11-91.328,379.447-91.635,379.754Z" transform="translate(-3.878 -6.839)"/>
    <path id="Path_46981_-_Outline" data-name="Path 46981 - Outline" d="M-91.64,381.461a.875.875,0,0,1-.623-.289c-1.185-1.178-2.412-2.4-3.6-3.6a.817.817,0,0,1,0-1.22,2.177,2.177,0,0,1,.151-.158c.034-.033.065-.064.094-.1l.026-.028-.282-.275-.3-.294a7.389,7.389,0,0,1-4.562,1.58,7.5,7.5,0,0,1-5.753-2.717,7.434,7.434,0,0,1-1.671-5.1,7.37,7.37,0,0,1,2.2-4.879,7.393,7.393,0,0,1,5.212-2.137,7.4,7.4,0,0,1,4.766,1.742,7.426,7.426,0,0,1,2.6,4.914,7.438,7.438,0,0,1-1.54,5.347c.191.186.387.378.6.58.073-.082.153-.17.24-.253a.915.915,0,0,1,.64-.293.846.846,0,0,1,.6.265c1.208,1.2,2.428,2.421,3.629,3.629a.808.808,0,0,1,0,1.21c-.584.606-1.188,1.21-1.8,1.8A.858.858,0,0,1-91.64,381.461Zm-4.512-6.764.193.184c.167.159.334.323.5.481s.325.318.491.477l.211.2-.2.216c-.038.042-.079.084-.119.127s-.073.076-.108.115-.08.083-.119.12-.082.08-.114.118l-.01.011c-.169.183-.141.27-.016.4,1.192,1.207,2.418,2.425,3.6,3.6a.332.332,0,0,0,.2.114.31.31,0,0,0,.188-.106l0,0c.6-.581,1.2-1.181,1.783-1.783.136-.14.136-.233,0-.372-1.2-1.2-2.417-2.424-3.622-3.621a.271.271,0,0,0-.175-.093.366.366,0,0,0-.223.125c-.093.089-.179.187-.263.282-.055.062-.106.121-.16.177l-.208.219-.218-.209c-.373-.358-.7-.677-1.015-.986l-.2-.193.173-.216a6.862,6.862,0,0,0,1.578-5.118,6.828,6.828,0,0,0-2.389-4.519,6.8,6.8,0,0,0-4.379-1.6,6.8,6.8,0,0,0-4.791,1.965,6.771,6.771,0,0,0-2.018,4.482,6.835,6.835,0,0,0,1.536,4.689,6.893,6.893,0,0,0,5.288,2.5,6.821,6.821,0,0,0,4.389-1.61Zm4.517,5.481-.212-.212c-.464-.464-.931-.933-1.4-1.4s-.937-.94-1.4-1.4l-.212-.212.212-.212c.3-.3.645-.645.967-.96l.213-.208.21.211.922.931c.614.62,1.248,1.261,1.869,1.882l.215.215-.217.212c-.31.3-.649.641-.947.94Zm-2.375-3.231,1.19,1.193,1.185,1.189c.173-.173.354-.353.531-.528-.553-.554-1.114-1.121-1.657-1.67l-.711-.718C-93.652,376.591-93.835,376.773-94.01,376.947Zm-6.769-.965h-.014a6.254,6.254,0,0,1-4.451-1.863,6.291,6.291,0,0,1-1.841-4.49,6.314,6.314,0,0,1,6.309-6.285h.014A6.267,6.267,0,0,1-96.3,365.2a6.285,6.285,0,0,1,1.85,4.483A6.333,6.333,0,0,1-100.779,375.983Zm0-12.038a5.713,5.713,0,0,0-5.709,5.687,5.7,5.7,0,0,0,1.667,4.066,5.658,5.658,0,0,0,4.027,1.686h.013a5.732,5.732,0,0,0,5.731-5.7,5.689,5.689,0,0,0-1.674-4.057,5.672,5.672,0,0,0-4.041-1.679Z" transform="translate(-3.878 -6.839)"/>
    <path id="Path_46986" data-name="Path 46986" d="M-118.206,370.037c-.631-.007-1.263-.007-1.888,0a.479.479,0,0,0-.514.514c-.013.306-.007.612-.007.918,0,.325-.007.651.007.976a.479.479,0,0,0,.514.514c.625.007,1.256.007,1.888,0a.484.484,0,0,0,.514-.521c.007-.625.007-1.256,0-1.888A.482.482,0,0,0-118.206,370.037Zm-.469,1.933h-.95v-.937h.95Z" transform="translate(-1.21 -6.957)"/>
    <path id="Path_46986_-_Outline" data-name="Path 46986 - Outline" d="M-119.152,369.533c.315,0,.635,0,.951,0h.005a.977.977,0,0,1,1,1v.005c.007.633.007,1.271,0,1.9a.981.981,0,0,1-1,1.015h-.005c-.632.007-1.273.007-1.9,0a.978.978,0,0,1-1.009-1c-.01-.254-.009-.506-.008-.75q0-.121,0-.241c0-.076,0-.151,0-.227,0-.23,0-.468.008-.707a.976.976,0,0,1,1-1C-119.786,369.534-119.467,369.533-119.152,369.533Z" transform="translate(-1.21 -6.957)"/>
    <path id="Path_46989" data-name="Path 46989" d="M-116.894,364.154c-.613.759-1.24,1.517-1.882,2.254a.494.494,0,0,1-.781-.022c-.328-.357-.642-.737-.941-1.123a.515.515,0,0,1,.08-.737.539.539,0,0,1,.766.058c.088.088.16.19.241.284s.16.19.263.3c.423-.5.824-.992,1.233-1.481a2.437,2.437,0,0,1,.175-.212.545.545,0,0,1,.744-.051A.509.509,0,0,1-116.894,364.154Z" transform="translate(-1.41 -6.62)"/>
    <path id="Path_46989_-_Outline" data-name="Path 46989 - Outline" d="M-117.335,362.951a.9.9,0,0,1,.555.2l0,0a.857.857,0,0,1,.157,1.219c-.715.886-1.316,1.6-1.893,2.268a.826.826,0,0,1-.631.3.913.913,0,0,1-.672-.317c-.313-.341-.627-.716-.96-1.145a.865.865,0,0,1,.129-1.217.863.863,0,0,1,.57-.218.953.953,0,0,1,.671.295,2.535,2.535,0,0,1,.188.217l.062.076.448-.539c.174-.209.346-.417.52-.625l.039-.05a1.88,1.88,0,0,1,.159-.187l.008-.008A.936.936,0,0,1-117.335,362.951Zm.121.747a.2.2,0,0,0-.121-.048.256.256,0,0,0-.162.076,1.358,1.358,0,0,0-.1.116l-.049.062,0,.006c-.174.208-.347.417-.521.626-.231.278-.469.566-.713.855l-.254.3-.27-.289c-.108-.115-.192-.215-.274-.311-.029-.034-.057-.069-.085-.1a1.985,1.985,0,0,0-.136-.159.263.263,0,0,0-.176-.089.172.172,0,0,0-.113.048l0,0a.168.168,0,0,0-.027.256c.319.412.62.772.921,1.1a.237.237,0,0,0,.156.09.139.139,0,0,0,.1-.059c.573-.658,1.169-1.371,1.876-2.246A.167.167,0,0,0-117.214,363.7Z" transform="translate(-1.41 -6.62)"/>
    <path id="Path_46995" data-name="Path 46995" d="M-97,369.84a6.013,6.013,0,0,0-1.652-1.983,3.316,3.316,0,0,0-3.73-.45,5.568,5.568,0,0,0-2.41,2.516.6.6,0,0,0,.041.509,12.239,12.239,0,0,0,1.06,1.445,3.823,3.823,0,0,0,2.806,1.362.293.293,0,0,0,.024.077,9.162,9.162,0,0,0,1.439-.432,5.548,5.548,0,0,0,2.463-2.534A.67.67,0,0,0-97,369.84Zm-.912.4a4.339,4.339,0,0,1-2.333,2.019,3.737,3.737,0,0,1-.527.095,2.684,2.684,0,0,1-1.9-.746A14.936,14.936,0,0,1-103.8,370.3a.292.292,0,0,1-.036-.266,4.451,4.451,0,0,1,2.2-1.983,2.365,2.365,0,0,1,2.143.3A4.967,4.967,0,0,1-97.935,370,.276.276,0,0,1-97.911,370.242Z" transform="translate(-3.772 -7.307)"/>
    <path id="Path_46995_-_Outline" data-name="Path 46995 - Outline" d="M-100.857,366.524h0a4.114,4.114,0,0,1,2.509.935,6.536,6.536,0,0,1,1.789,2.145l.006.012a1.153,1.153,0,0,1,.041.956l-.007.013a6.019,6.019,0,0,1-2.689,2.749,5.717,5.717,0,0,1-1.1.354c-.144.035-.28.069-.413.107l-.4.113-.095-.19a4.362,4.362,0,0,1-2.842-1.506,11.782,11.782,0,0,1-1.041-1.407l-.071-.107a1.081,1.081,0,0,1-.06-1.013,6.027,6.027,0,0,1,2.629-2.728A3.907,3.907,0,0,1-100.857,366.524Zm2.417,3.613a4.307,4.307,0,0,0-1.323-1.365,2.064,2.064,0,0,0-1.109-.358,1.773,1.773,0,0,0-.6.108,3.758,3.758,0,0,0-1.828,1.6l.14.173a9.946,9.946,0,0,0,.834.95,2.17,2.17,0,0,0,1.524.606l.06-.008a2.4,2.4,0,0,0,.357-.066A3.739,3.739,0,0,0-98.44,370.137Z" transform="translate(-3.772 -7.307)"/>
    <path id="Path_46996" data-name="Path 46996" d="M-99.529,370.04a.852.852,0,0,0-.864.845.857.857,0,0,0,.838.857.858.858,0,0,0,.864-.849A.856.856,0,0,0-99.529,370.04Zm-.027,1.133a.286.286,0,0,1-.269-.3.286.286,0,0,1,.3-.269.288.288,0,0,1,.269.3A.288.288,0,0,1-99.555,371.173Z" transform="translate(-5.103 -8.066)"/>
    <path id="Path_46996_-_Outline" data-name="Path 46996 - Outline" d="M-99.543,369.54h.022a1.352,1.352,0,0,1,1.329,1.353,1.358,1.358,0,0,1-1.351,1.349h-.022a1.354,1.354,0,0,1-1.329-1.361,1.331,1.331,0,0,1,.4-.946A1.343,1.343,0,0,1-99.543,369.54Z" transform="translate(-5.103 -8.066)"/>
    <path id="Line_635" data-name="Line 635" d="M0,7A1,1,0,0,1-1,6V0A1,1,0,0,1,0-1,1,1,0,0,1,1,0V6A1,1,0,0,1,0,7Z" transform="translate(-120.624 347.581)"/>
    <path id="Line_636" data-name="Line 636" d="M0,7A1,1,0,0,1-1,6V0A1,1,0,0,1,0-1,1,1,0,0,1,1,0V6A1,1,0,0,1,0,7Z" transform="translate(-116.893 347.581)"/>
    <path id="Line_638" data-name="Line 638" d="M0,7A1,1,0,0,1-1,6V0A1,1,0,0,1,0-1,1,1,0,0,1,1,0V6A1,1,0,0,1,0,7Z" transform="translate(-109.43 347.581)"/>
    <path id="Line_637" data-name="Line 637" d="M0,5A1,1,0,0,1-1,4V0A1,1,0,0,1,0-1,1,1,0,0,1,1,0V4A1,1,0,0,1,0,5Z" transform="translate(-113.161 349.581)"/>
    <path id="Line_639" data-name="Line 639" d="M4.4.75H0A.75.75,0,0,1-.75,0,.75.75,0,0,1,0-.75H4.4a.75.75,0,0,1,.75.75A.75.75,0,0,1,4.4.75Z" transform="translate(-116.158 357.227)"/>
    <path id="Line_642" data-name="Line 642" d="M3.4.75H0A.75.75,0,0,1-.75,0,.75.75,0,0,1,0-.75H3.4a.75.75,0,0,1,.75.75A.75.75,0,0,1,3.4.75Z" transform="translate(-116.158 365.818)"/>
    <path id="Line_640" data-name="Line 640" d="M2.4.75H0A.75.75,0,0,1-.75,0,.75.75,0,0,1,0-.75H2.4a.75.75,0,0,1,.75.75A.75.75,0,0,1,2.4.75Z" transform="translate(-116.158 359.969)"/>
    <path id="Line_641" data-name="Line 641" d="M2.4.75H0A.75.75,0,0,1-.75,0,.75.75,0,0,1,0-.75H2.4a.75.75,0,0,1,.75.75A.75.75,0,0,1,2.4.75Z" transform="translate(-116.158 363.076)"/>
  </g>
</svg>
