<svg id="Layer_2" data-name="Layer 2" xmlns="http://www.w3.org/2000/svg" width="24.587" height="24.587" viewBox="0 0 24.587 24.587">
  <path id="Path_46937" data-name="Path 46937" d="M25.687,13.393c0-.914-.733-1.895-2.357-3.169a1.524,1.524,0,0,1-.586-1.41c.282-2.211.1-3.508-.575-4.2s-1.985-.857-4.2-.575a1.524,1.524,0,0,1-1.41-.586C15.288,1.833,14.307,1.1,13.393,1.1s-1.895.733-3.169,2.357a1.524,1.524,0,0,1-1.41.586c-2.211-.282-3.507-.1-4.2.575s-.857,1.974-.575,4.2a1.524,1.524,0,0,1-.586,1.41C1.833,11.5,1.1,12.469,1.1,13.393s.733,1.895,2.357,3.169a1.524,1.524,0,0,1,.586,1.41c-.282,2.211-.1,3.507.575,4.2s1.985.857,4.2.575a1.524,1.524,0,0,1,1.41.586c1.275,1.624,2.256,2.357,3.169,2.357s1.895-.733,3.169-2.357a1.524,1.524,0,0,1,1.41-.586c2.211.282,3.507.1,4.2-.575s.857-1.974.575-4.2a1.524,1.524,0,0,1,.586-1.41C24.954,15.288,25.687,14.318,25.687,13.393ZM13.393,20.16a6.767,6.767,0,1,1,6.767-6.767,6.767,6.767,0,0,1-6.767,6.767Z" transform="translate(-1.1 -1.1)" fill="#fff"/>
  <path id="Path_46938" data-name="Path 46938" d="M14.393,9.4l-3.031,3.368-.843-.843a1.221,1.221,0,0,0-1.726,0h0a1.221,1.221,0,0,0,0,1.726l1.753,1.753a1.221,1.221,0,0,0,1.771-.047l3.892-4.325A1.221,1.221,0,1,0,14.393,9.4Z" transform="translate(-0.163 -0.09)" fill="#fff"/>
</svg>
