<svg xmlns="http://www.w3.org/2000/svg" width="21.881" height="24.729" viewBox="0 0 21.881 24.729">
  <g id="Master_Data" data-name="Master Data" transform="translate(-118.086 -396.476)">
    <path id="Path_47003" data-name="Path 47003" d="M139.812,416.644a4.806,4.806,0,0,0-.049-1.071,2.172,2.172,0,0,0-2.081-1.731v-1.384a2.193,2.193,0,0,0,2.133-2.416c0-.689,0-1.377,0-2.066a4.553,4.553,0,0,0-.048-1.026,2.176,2.176,0,0,0-2.084-1.732v-1.383a2.2,2.2,0,0,0,2.134-2.416c0-.9.008-1.8,0-2.695a2.116,2.116,0,0,0-2.086-2.1q-8.688-.011-17.377,0a2.117,2.117,0,0,0-2.087,2.1q-.016,1.482,0,2.963a2.044,2.044,0,0,0,1.207,1.9,5.682,5.682,0,0,0,.928.288V405.2a2.284,2.284,0,0,0-2.15,2.591c.06.834.006,1.676.013,2.514a2.123,2.123,0,0,0,1.537,2.032c.194.058.4.088.6.131v1.379a2.178,2.178,0,0,0-2.139,2.339c0,.913-.006,1.827,0,2.74a2.123,2.123,0,0,0,2.108,2.121q8.665.011,17.332,0a2.125,2.125,0,0,0,2.111-2.12C139.821,418.171,139.818,417.407,139.812,416.644ZM119.693,401.33c0-.778,0-1.555,0-2.333,0-.667.262-.936.916-.936q8.436,0,16.872,0c.629,0,.9.274.9.907q.007,1.257,0,2.513c0,.624-.278.892-.916.892q-4.216.005-8.435,0-4.152,0-8.3,0C119.921,402.375,119.694,402.145,119.693,401.33Zm16.508,2.507v1.392h-1.385v-1.392Zm-2.876,0v1.392h-8.57v-1.392Zm-10.065,0v1.4h-1.374v-1.4Zm-3.566,6.25q-.007-1.257,0-2.513c0-.626.275-.893.912-.894q4.24,0,8.481,0h8.256c.809,0,1.036.229,1.037,1.042,0,.778,0,1.555,0,2.333,0,.666-.263.939-.913.939q-8.435,0-16.872,0C119.965,411,119.7,410.725,119.694,410.092Zm16.5,2.373v1.385H134.8v-1.385Zm-2.884-.008v1.385h-8.57v-1.385Zm-10.057,0v1.39h-1.383v-1.39Zm15.123,6.223c0,.687-.26.943-.953.945q-4.195,0-8.391,0h-8.3c-.813,0-1.041-.227-1.042-1.036,0-.793,0-1.585,0-2.379,0-.629.272-.9.907-.9q8.435,0,16.872,0c.633,0,.9.271.906.9C138.385,417.032,138.383,417.854,138.379,418.677Z" stroke="#000" stroke-width="0.3"/>
    <path id="Path_47007" data-name="Path 47007" d="M172.429,529.917v-1.385H181v1.385Z" transform="translate(-47.686 -116.075)" fill="#fff"/>
    <path id="Path_47008" data-name="Path 47008" d="M181.1,458.108h-8.569v-1.392H181.1Z" transform="translate(-47.777 -52.879)" fill="#fff"/>
    <path id="Path_47009" data-name="Path 47009" d="M149.993,458.155h-1.375v-1.4h1.375Z" transform="translate(-26.732 -52.915)" fill="#fff"/>
    <path id="Path_47010" data-name="Path 47010" d="M257.738,458.109h-1.384v-1.392h1.384Z" transform="translate(-121.538 -52.88)" fill="#fff"/>
    <path id="Path_47011" data-name="Path 47011" d="M148.521,528.51H149.9v1.39h-1.382Z" transform="translate(-26.647 -116.056)" fill="#fff"/>
    <path id="Path_47012" data-name="Path 47012" d="M256.251,529.982V528.6h1.393v1.385Z" transform="translate(-121.447 -116.133)" fill="#fff"/>
    <g id="Path_47013" data-name="Path 47013" transform="translate(121.884 399.056)">
      <path d="M 1.500002145767212 2.146482229232788 C 0.9360321760177612 2.146482229232788 0.5107421875 1.741342186927795 0.5107421875 1.204102158546448 C 0.5107421875 0.660172164440155 0.9360321760177612 0.2500021755695343 1.500002145767212 0.2500021755695343 C 2.066772222518921 0.2500021755695343 2.5107421875 0.6690921783447266 2.5107421875 1.204102158546448 C 2.5107421875 1.741342186927795 2.07622218132019 2.146482229232788 1.500002145767212 2.146482229232788 Z" stroke="none"/>
      <path d="M 1.500002145767212 0.7500021457672119 C 1.211932182312012 0.7500021457672119 1.0107421875 0.9367321729660034 1.0107421875 1.204102158546448 C 1.0107421875 1.508042216300964 1.264362215995789 1.646482229232788 1.500002145767212 1.646482229232788 C 1.753812193870544 1.646482229232788 2.0107421875 1.494532108306885 2.0107421875 1.204102158546448 C 2.0107421875 0.9091521501541138 1.747592210769653 0.7500021457672119 1.500002145767212 0.7500021457672119 M 1.500002145767212 -0.2499978542327881 C 2.328422069549561 -0.2499978542327881 3.0107421875 0.3756721019744873 3.0107421875 1.204102158546448 C 3.0107421875 2.032532215118408 2.328422069549561 2.646482229232788 1.500002145767212 2.646482229232788 C 0.671572208404541 2.646482229232788 0.0107421875 2.032532215118408 0.0107421875 1.204102158546448 C 0.0107421875 0.3756721019744873 0.671572208404541 -0.2499978542327881 1.500002145767212 -0.2499978542327881 Z" stroke="none" fill="#000"/>
    </g>
    <g id="Path_47014" data-name="Path 47014" transform="translate(121.884 407.625)">
      <path d="M 1.500002145767212 2.146482229232788 C 0.9360321760177612 2.146482229232788 0.5107421875 1.741342186927795 0.5107421875 1.204102158546448 C 0.5107421875 0.660172164440155 0.9360321760177612 0.2500021755695343 1.500002145767212 0.2500021755695343 C 2.066772222518921 0.2500021755695343 2.5107421875 0.6690921783447266 2.5107421875 1.204102158546448 C 2.5107421875 1.741342186927795 2.07622218132019 2.146482229232788 1.500002145767212 2.146482229232788 Z" stroke="none"/>
      <path d="M 1.500002145767212 0.7500021457672119 C 1.211932182312012 0.7500021457672119 1.0107421875 0.9367321729660034 1.0107421875 1.204102158546448 C 1.0107421875 1.508042216300964 1.264362215995789 1.646482229232788 1.500002145767212 1.646482229232788 C 1.753812193870544 1.646482229232788 2.0107421875 1.494532108306885 2.0107421875 1.204102158546448 C 2.0107421875 0.9091521501541138 1.747592210769653 0.7500021457672119 1.500002145767212 0.7500021457672119 M 1.500002145767212 -0.2499978542327881 C 2.328422069549561 -0.2499978542327881 3.0107421875 0.3756721019744873 3.0107421875 1.204102158546448 C 3.0107421875 2.032532215118408 2.328422069549561 2.646482229232788 1.500002145767212 2.646482229232788 C 0.671572208404541 2.646482229232788 0.0107421875 2.032532215118408 0.0107421875 1.204102158546448 C 0.0107421875 0.3756721019744873 0.671572208404541 -0.2499978542327881 1.500002145767212 -0.2499978542327881 Z" stroke="none" fill="#000"/>
    </g>
    <g id="Path_47015" data-name="Path 47015" transform="translate(121.884 416.274)">
      <path d="M 1.500002145767212 2.146482229232788 C 0.9360321760177612 2.146482229232788 0.5107421875 1.741342186927795 0.5107421875 1.204102158546448 C 0.5107421875 0.660172164440155 0.9360321760177612 0.2500021755695343 1.500002145767212 0.2500021755695343 C 2.066772222518921 0.2500021755695343 2.5107421875 0.6690921783447266 2.5107421875 1.204102158546448 C 2.5107421875 1.741342186927795 2.07622218132019 2.146482229232788 1.500002145767212 2.146482229232788 Z" stroke="none"/>
      <path d="M 1.500002145767212 0.7500021457672119 C 1.211932182312012 0.7500021457672119 1.0107421875 0.9367321729660034 1.0107421875 1.204102158546448 C 1.0107421875 1.508042216300964 1.264362215995789 1.646482229232788 1.500002145767212 1.646482229232788 C 1.753812193870544 1.646482229232788 2.0107421875 1.494532108306885 2.0107421875 1.204102158546448 C 2.0107421875 0.9091521501541138 1.747592210769653 0.7500021457672119 1.500002145767212 0.7500021457672119 M 1.500002145767212 -0.2499978542327881 C 2.328422069549561 -0.2499978542327881 3.0107421875 0.3756721019744873 3.0107421875 1.204102158546448 C 3.0107421875 2.032532215118408 2.328422069549561 2.646482229232788 1.500002145767212 2.646482229232788 C 0.671572208404541 2.646482229232788 0.0107421875 2.032532215118408 0.0107421875 1.204102158546448 C 0.0107421875 0.3756721019744873 0.671572208404541 -0.2499978542327881 1.500002145767212 -0.2499978542327881 Z" stroke="none" fill="#000"/>
    </g>
  </g>
</svg>
