<svg xmlns="http://www.w3.org/2000/svg" width="30.238" height="30.091" viewBox="0 0 30.238 30.091">
  <g id="noun-menu-5678934" transform="translate(0.645 0.5)">
    <g id="Menu" transform="translate(0 0)">
      <path id="Path_46966" data-name="Path 46966" d="M28.414,33.091H24.258a4.675,4.675,0,0,1-4.675-4.675V24.26a4.675,4.675,0,0,1,4.675-4.675.519.519,0,1,1,0,1.039,3.636,3.636,0,0,0-3.636,3.636v4.156a3.636,3.636,0,0,0,3.636,3.636h4.156a3.636,3.636,0,0,0,3.636-3.636V24.26a3.636,3.636,0,0,0-3.636-3.636h-.519a.519.519,0,0,1,0-1.039h.519a4.675,4.675,0,0,1,4.675,4.675v4.156A4.675,4.675,0,0,1,28.414,33.091Zm-17.663,0a6.691,6.691,0,0,1-3.938-1.268.519.519,0,1,1,.6-.842,5.714,5.714,0,1,0-1.86-2.265.521.521,0,0,1-.945.436,6.753,6.753,0,1,1,6.14,3.938ZM28.414,17.507H24.258a4.675,4.675,0,0,1-4.675-4.675V8.675A4.675,4.675,0,0,1,24.258,4h4.156a4.618,4.618,0,0,1,1.756.343.529.529,0,1,1-.395.982,3.569,3.569,0,0,0-1.361-.286H24.258a3.636,3.636,0,0,0-3.636,3.636v4.156a3.636,3.636,0,0,0,3.636,3.636h4.156a3.636,3.636,0,0,0,3.636-3.636V8.675a3.569,3.569,0,0,0-.265-1.361.521.521,0,1,1,.966-.39,4.675,4.675,0,0,1,.338,1.751v4.156A4.675,4.675,0,0,1,28.414,17.507Zm-15.585,0H8.673A4.675,4.675,0,0,1,4,12.831V8.675a4.712,4.712,0,0,1,.623-2.338.521.521,0,0,1,.9.519,3.6,3.6,0,0,0-.488,1.818v4.156a3.636,3.636,0,0,0,3.636,3.636h4.156a3.636,3.636,0,0,0,3.636-3.636V8.675a3.636,3.636,0,0,0-3.636-3.636H8.673A3.569,3.569,0,0,0,7.312,5.3a.522.522,0,0,1-.395-.966A4.712,4.712,0,0,1,8.673,4h4.156A4.675,4.675,0,0,1,17.5,8.675v4.156A4.675,4.675,0,0,1,12.829,17.507Z" transform="translate(-3.996 -4)" fill="#fff" stroke="#fff" stroke-width="1"/>
    </g>
  </g>
</svg>
