<svg id="noun-feed-5095062" xmlns="http://www.w3.org/2000/svg" width="28.328" height="28.328" viewBox="0 0 28.328 28.328">
  <g id="Group_44326" data-name="Group 44326" transform="translate(0 0)">
    <path id="Path_46954" data-name="Path 46954" d="M26.955,21.25H3.238a.988.988,0,1,0,0,1.976H26.955a.988.988,0,0,0,0-1.976Z" transform="translate(-0.932 5.102)" fill="#fff"/>
    <path id="Path_46955" data-name="Path 46955" d="M23.32,1.25H7.509A6.259,6.259,0,0,0,1.25,7.509V18.049a6.259,6.259,0,0,0,6.259,6.259H23.32a6.259,6.259,0,0,0,6.259-6.259V7.509A6.259,6.259,0,0,0,23.32,1.25ZM3.226,7.509A4.3,4.3,0,0,1,7.509,3.226H23.32A4.3,4.3,0,0,1,27.6,7.509v7.906l-2.266-2.24a4.809,4.809,0,0,0-6.667,0L16.034,15.81a2.833,2.833,0,0,1-3.874,0,4.809,4.809,0,0,0-6.667,0l-2.266,2.24ZM23.32,22.332H7.509A4.3,4.3,0,0,1,3.846,20.25l3.044-3.044a2.793,2.793,0,0,1,3.874,0,4.888,4.888,0,0,0,6.667,0l2.635-2.635a2.793,2.793,0,0,1,3.874,0l3.65,3.65A4.282,4.282,0,0,1,23.32,22.332Z" transform="translate(-1.25 -1.25)" fill="#fff"/>
    <path id="Path_46956" data-name="Path 46956" d="M11.873,11.5A3.623,3.623,0,1,0,8.25,7.873,3.623,3.623,0,0,0,11.873,11.5Zm0-5.27a1.647,1.647,0,1,1-1.647,1.647A1.647,1.647,0,0,1,11.873,6.226Z" transform="translate(0.973 -0.297)" fill="#fff"/>
  </g>
</svg>
