<svg xmlns="http://www.w3.org/2000/svg" width="21.314" height="24.224" viewBox="0 0 21.314 24.224">
  <g id="noun-user-3680410" transform="translate(-3.27 -1.074)">
    <g id="Group_44265" data-name="Group 44265" transform="translate(3.27 1.074)">
      <circle id="Ellipse_1435" data-name="Ellipse 1435" cx="5.266" cy="5.266" r="5.266" transform="translate(2.289 1.687) rotate(-9.218)" fill="#fff"/>
      <path id="Path_46944" data-name="Path 46944" d="M13.935,17.508a2.008,2.008,0,0,1,.033-.2,4.9,4.9,0,0,1,.41-1.356,7.507,7.507,0,0,0-1.674-.2h-2.21A7.231,7.231,0,0,0,3.27,22.975.927.927,0,0,0,4.2,23.9h7.978V19.626a2.145,2.145,0,0,1,1.272-1.967A2.506,2.506,0,0,1,13.935,17.508Z" transform="translate(-3.27 -3.464)" fill="#fff"/>
      <path id="Path_46945" data-name="Path 46945" d="M25.627,18.417h-.8v-.578a3.863,3.863,0,0,0-7.292-1.775,3.7,3.7,0,0,0-.377,1.172,3.66,3.66,0,0,0-.05.6v.578h-.8a.927.927,0,0,0-.929.929V26.47a.927.927,0,0,0,.929.929h9.317a.927.927,0,0,0,.929-.929V19.346A.927.927,0,0,0,25.627,18.417ZM22.638,24.31a2.7,2.7,0,0,1-.268.268,2.161,2.161,0,0,1-3.039-.268,2.177,2.177,0,0,1,0-2.8,1.78,1.78,0,0,1,.251-.251,2.148,2.148,0,0,1,1.4-.511,2.12,2.12,0,0,1,1.632.762l.008.008A2.186,2.186,0,0,1,22.638,24.31Zm-1.666-8.489a2.008,2.008,0,0,1,2,2.009v.578H18.955v-.578a1.789,1.789,0,0,1,.025-.285c0-.008.008-.017.008-.025A1.988,1.988,0,0,1,20.972,15.822Z" transform="translate(-5.242 -3.175)" fill="#fff"/>
    </g>
  </g>
</svg>
