<svg xmlns="http://www.w3.org/2000/svg" width="22.487" height="20.149" viewBox="0 0 22.487 20.149">
  <g id="noun-risk-6587331" transform="translate(-5.008 -9.686)">
    <path id="Path_46941" data-name="Path 46941" d="M14.756,16.214c0-.039-.005-.078-.005-.116a1.357,1.357,0,0,1,.419-.969,1.56,1.56,0,0,1,.949-.438q.067-.006.133-.006c.044,0,.089,0,.133.006a1.562,1.562,0,0,1,.949.438,1.356,1.356,0,0,1,.419.969c0,.038,0,.076-.005.116l-.636,7.2a.876.876,0,0,1-.475.735.851.851,0,0,1-.77,0,.875.875,0,0,1-.475-.735l-.636-7.2h0Zm1.5,8.943a1.282,1.282,0,1,1-.907.376,1.279,1.279,0,0,1,.907-.376Zm6.566-6.693.011.018,4.308,7.462h0a2.622,2.622,0,0,1-.943,3.553h0a2.586,2.586,0,0,1-1.3.337H7.614a2.583,2.583,0,0,1-1.3-.337l-.019-.01a2.679,2.679,0,0,1-1.283-2.246h0a2.585,2.585,0,0,1,.359-1.3l.011-.02,4.308-7.461h0l4.319-7.481a2.585,2.585,0,0,1,.943-.96h0a2.577,2.577,0,0,1,3.549.96l4.319,7.481Z" fill="#fff" fill-rule="evenodd"/>
  </g>
</svg>
