<svg xmlns="http://www.w3.org/2000/svg" width="33.952" height="32.446" viewBox="0 0 33.952 32.446">
  <g id="noun-messages-6693803" transform="translate(0.5 0.5)">
    <g id="Group_44328" data-name="Group 44328" transform="translate(0 0)">
      <path id="Path_46961" data-name="Path 46961" d="M34.223,7.5H28.281a.867.867,0,0,0,0,1.734h5.943A2.466,2.466,0,0,1,36.686,11.7V28.768a2.465,2.465,0,0,1-2.463,2.463c-8.237.077-6.664-.991-11.638,5.661a.826.826,0,0,1-1.283,0l-3.018-4.018A4.078,4.078,0,0,0,15,31.233H9.666A2.466,2.466,0,0,1,7.2,28.77V11.7A2.465,2.465,0,0,1,9.666,9.234H24.812a.867.867,0,0,0,0-1.734H9.666a4.2,4.2,0,0,0-4.2,4.2V28.769a4.2,4.2,0,0,0,4.2,4.2H15a2.353,2.353,0,0,1,1.9.948l3.016,4.016a2.537,2.537,0,0,0,4.06,0l3.018-4.018a2.355,2.355,0,0,1,1.9-.948h5.336a4.2,4.2,0,0,0,4.2-4.2V11.7a4.2,4.2,0,0,0-4.2-4.2Z" transform="translate(-5.469 -7.5)" fill="#fff" stroke="#fff" stroke-width="1"/>
      <path id="Path_46962" data-name="Path 46962" d="M41.648,24.094H22.022a.867.867,0,0,0,0,1.734H41.648A.867.867,0,0,0,41.648,24.094Z" transform="translate(-15.359 -17.955)" fill="#fff" stroke="#fff" stroke-width="1"/>
      <path id="Path_46963" data-name="Path 46963" d="M41.648,39.57H22.022a.867.867,0,0,0,0,1.734H41.648A.867.867,0,0,0,41.648,39.57Z" transform="translate(-15.359 -27.705)" fill="#fff" stroke="#fff" stroke-width="1"/>
      <path id="Path_46964" data-name="Path 46964" d="M57.315,55.043H46.889a.867.867,0,0,0,0,1.734H57.315A.867.867,0,0,0,57.315,55.043Z" transform="translate(-31.026 -37.453)" fill="#fff" stroke="#fff" stroke-width="1"/>
      <path id="Path_46965" data-name="Path 46965" d="M22.022,55.043a.867.867,0,0,0,0,1.734h4.821a.867.867,0,1,0,0-1.734H22.02Z" transform="translate(-15.359 -37.453)" fill="#fff" stroke="#fff" stroke-width="1"/>
    </g>
  </g>
</svg>
