<svg id="noun-desktop-publish-4304185" xmlns="http://www.w3.org/2000/svg" width="28" height="28" viewBox="0 0 28 28">
  <rect id="Rectangle_18313" data-name="Rectangle 18313" width="28" height="28" fill="none"/>
  <g id="Group_44314" data-name="Group 44314" transform="translate(1.38 0.56)">
    <path id="Path_46951" data-name="Path 46951" d="M23.387,25.407h2.825a2.074,2.074,0,0,1,2.072,2.072v8.288a2.074,2.074,0,0,1-2.072,2.072H8.883a2.074,2.074,0,0,1-2.072-2.072V27.479a2.074,2.074,0,0,1,2.072-2.072H11.52a.942.942,0,0,0,0-1.884H8.883a3.96,3.96,0,0,0-3.956,3.956v8.288a3.96,3.96,0,0,0,3.956,3.956h5.544L13.24,42.116H11.149a1.13,1.13,0,0,0,0,2.261H23.2a1.13,1.13,0,1,0,0-2.26H21.8l-1.186-2.393h5.6a3.96,3.96,0,0,0,3.956-3.956V27.479a3.96,3.96,0,0,0-3.956-3.956H23.387a.942.942,0,1,0,0,1.883ZM15.343,42.116l1.186-2.393h1.984L19.7,42.116Z" transform="translate(-4.927 -17.496)"/>
    <path id="Path_46952" data-name="Path 46952" d="M35.739,6.725a.942.942,0,0,0,1.332,0l1.746-1.746v8.7a.942.942,0,1,0,1.884,0V4.961l1.684,1.683a.942.942,0,1,0,1.332-1.332L40.85,2.446a1.533,1.533,0,0,0-2.164,0L35.739,5.393A.942.942,0,0,0,35.739,6.725Z" transform="translate(-26.913 -1.999)"/>
    <path id="Path_46953" data-name="Path 46953" d="M46.523,62.588a1.13,1.13,0,0,0,0-2.26h-.753a1.13,1.13,0,1,0,0,2.26Z" transform="translate(-33.52 -43.996)"/>
  </g>
</svg>
