<svg xmlns="http://www.w3.org/2000/svg" width="21.741" height="21.741" viewBox="0 0 21.741 21.741">
  <g id="noun-info-2442989" transform="translate(0.001 0)">
    <path id="Path_46967" data-name="Path 46967" d="M40,48.827V46.97h1.231V43.218H40V41.35h3.111v5.6h1.237v1.874H40Z" transform="translate(-31.304 -32.36)"/>
    <path id="Path_46968" data-name="Path 46968" d="M44.109,24.26a1.25,1.25,0,0,1,1.241,1.248,1.281,1.281,0,0,1-1.283,1.259,1.252,1.252,0,0,1-1.217-1.259,1.276,1.276,0,0,1,1.259-1.248Z" transform="translate(-33.534 -18.986)"/>
    <path id="Path_46969" data-name="Path 46969" d="M10.9,0A10.871,10.871,0,1,1,0,10.775,10.889,10.889,0,0,1,10.9,0Zm.05,2.057a8.812,8.812,0,1,0,8.694,8.768A8.788,8.788,0,0,0,10.955,2.056Z" transform="translate(0 0)"/>
  </g>
</svg>
