<svg id="noun-user-3855315" xmlns="http://www.w3.org/2000/svg" width="34.528" height="34.528" viewBox="0 0 34.528 34.528">
  <g id="Group_44327" data-name="Group 44327" transform="translate(0 0)">
    <path id="Path_46959" data-name="Path 46959" d="M26.979,8.492A6.806,6.806,0,1,0,33.784,15.3,6.814,6.814,0,0,0,26.979,8.492Zm0,11.31a4.5,4.5,0,1,1,4.5-4.5A4.51,4.51,0,0,1,26.979,19.8Z" transform="translate(-9.715 -4.756)" fill="#fff"/>
    <path id="Path_46960" data-name="Path 46960" d="M33.3,5.23A10.953,10.953,0,0,0,25.5,2H13.028A11.027,11.027,0,0,0,2,13.028V25.5A11.028,11.028,0,0,0,13.028,36.528H25.5A11.028,11.028,0,0,0,36.528,25.5V13.028A10.956,10.956,0,0,0,33.3,5.23Zm-20.27,29a8.655,8.655,0,0,1-5.3-1.8,12.031,12.031,0,0,1,23.347-.22,8.656,8.656,0,0,1-5.58,2.02Zm21.2-8.726a8.659,8.659,0,0,1-1.372,4.689,14.34,14.34,0,0,0-26.962.322A8.659,8.659,0,0,1,4.3,25.5V13.028A8.726,8.726,0,0,1,13.028,4.3H25.5a8.727,8.727,0,0,1,8.726,8.726Z" transform="translate(-2 -2)" fill="#fff"/>
  </g>
</svg>
