<svg xmlns="http://www.w3.org/2000/svg" width="22.539" height="22.538" viewBox="0 0 22.539 22.538">
  <g id="noun-user-report-5383714" transform="translate(-1.25 -1.25)">
    <g id="Layer_2" data-name="Layer 2" transform="translate(1.25 1.25)">
      <circle id="Ellipse_1434" data-name="Ellipse 1434" cx="5.493" cy="5.493" r="5.493" transform="translate(1.562 3.145)" fill="#fff"/>
      <path id="Path_46942" data-name="Path 46942" d="M5,23.164h6.6a3.753,3.753,0,0,0,3.753-3.753,6.216,6.216,0,0,0-2.8-5.241,6.5,6.5,0,0,1-8.5,0A6.2,6.2,0,0,0,1.25,19.411,3.763,3.763,0,0,0,5,23.164Z" transform="translate(-1.25 -0.626)" fill="#fff"/>
      <path id="Path_46943" data-name="Path 46943" d="M18.229,11.209A4.979,4.979,0,1,0,13.25,6.229,4.979,4.979,0,0,0,18.229,11.209Zm-.786-7.076a.786.786,0,0,1,1.572,0v2.1a.786.786,0,0,1-1.572,0Zm.786,3.407a.786.786,0,1,1-.786.786.8.8,0,0,1,.786-.786Z" transform="translate(-0.67 -1.25)" fill="#fff"/>
    </g>
  </g>
</svg>
