<svg xmlns="http://www.w3.org/2000/svg" width="24.955" height="24.952" viewBox="0 0 24.955 24.952">
  <g id="noun-click-5696069" transform="translate(0.25 0.249)">
    <g id="Group_44334" data-name="Group 44334" transform="translate(0 0.001)">
      <path id="Path_46975" data-name="Path 46975" d="M12.163,0a.719.719,0,0,0-.718.716V4.688a.72.72,0,0,0,1.44,0V.717A.719.719,0,0,0,12.163,0Zm-8.5,2.946a.722.722,0,0,0-.508,1.232l2.808,2.8a.719.719,0,0,0,1.014-1.02l-2.8-2.8a.719.719,0,0,0-.51-.214ZM9.135,8.391a.719.719,0,0,0-.715.91l4.04,14.621a.719.719,0,0,0,1.312.176l2.378-4.04,3.287,3.286a.719.719,0,0,0,1.018,0l2.888-2.888a.719.719,0,0,0,0-1.018L20.02,16.114l4.072-2.342a.719.719,0,0,0-.164-1.316L9.3,8.415a.719.719,0,0,0-.166-.024Zm1.01,1.754,11.739,3.239-3.392,1.948a.719.719,0,0,0-.155,1.131l3.484,3.482-1.875,1.87-3.434-3.43a.719.719,0,0,0-1.131.143L13.4,21.905Zm-9.423,1.3a.719.719,0,1,0,0,1.438H4.687a.719.719,0,0,0,0-1.438Z" transform="translate(0 -0.001)" stroke="#000" stroke-width="0.5"/>
    </g>
  </g>
</svg>
