<svg xmlns="http://www.w3.org/2000/svg" width="36.89" height="30.781" viewBox="0 0 36.89 30.781">
  <g id="noun-comments-2374383" transform="translate(0.5 0.5)">
    <path id="Path_46957" data-name="Path 46957" d="M27.435,31.617a6.905,6.905,0,0,0,6.872-6.872V17.872A6.905,6.905,0,0,0,27.435,11H9.872A6.905,6.905,0,0,0,3,17.872v6.872a6.9,6.9,0,0,0,5.807,6.788L6.169,35.817a.764.764,0,0,0,.649,1.145.746.746,0,0,0,.271-.05l14-5.3ZM20.674,30.14,8.651,34.672l2.127-3.436a.764.764,0,0,0-.649-1.145H9.872a5.371,5.371,0,0,1-5.345-5.345V17.872a5.371,5.371,0,0,1,5.345-5.345H27.435a5.371,5.371,0,0,1,5.345,5.345v6.872a5.371,5.371,0,0,1-5.345,5.345H20.945A.746.746,0,0,0,20.674,30.14Z" transform="translate(-3 -11)" fill="#fbfbfb" stroke="#fff" stroke-width="1"/>
    <path id="Path_46958" data-name="Path 46958" d="M61.865,26.584A.767.767,0,0,0,60.72,27.6a5.348,5.348,0,0,1,1.371,3.562v6.872a5.371,5.371,0,0,1-5.345,5.345h-.256a.764.764,0,0,0-.649,1.145l2.127,3.436L45.944,43.433a.746.746,0,0,0-.271-.05H43.764a.764.764,0,1,0,0,1.527h1.768l14,5.3a.746.746,0,0,0,.271.05.764.764,0,0,0,.649-1.145L57.81,44.827a6.9,6.9,0,0,0,5.807-6.788V31.166A6.875,6.875,0,0,0,61.865,26.584Z" transform="translate(-27.728 -20.475)" fill="#fbfbfb" stroke="#fff" stroke-width="1"/>
    <ellipse id="Ellipse_1466" data-name="Ellipse 1466" cx="1.512" cy="1.512" rx="1.512" ry="1.512" transform="translate(6.921 9.074)" fill="#fbfbfb" stroke="#fff" stroke-width="1"/>
    <ellipse id="Ellipse_1467" data-name="Ellipse 1467" cx="1.512" cy="1.512" rx="1.512" ry="1.512" transform="translate(13.979 9.074)" fill="#fbfbfb" stroke="#fff" stroke-width="1"/>
    <ellipse id="Ellipse_1468" data-name="Ellipse 1468" cx="1.512" cy="1.512" rx="1.512" ry="1.512" transform="translate(21.037 9.074)" fill="#fbfbfb" stroke="#fff" stroke-width="1"/>
  </g>
</svg>
