<svg xmlns="http://www.w3.org/2000/svg" width="23.675" height="18.16" viewBox="0 0 23.675 18.16">
  <g id="noun-devices-4716977" transform="translate(-7.67 -44.7)">
    <g id="Group_44264" data-name="Group 44264" transform="translate(7.67 44.7)">
      <path id="Path_46939" data-name="Path 46939" d="M25.92,61.491l-.516-2.2h4.649A1.3,1.3,0,0,0,31.345,58V55.942H16.94V59.29h1.843l-.517,2.2a1.114,1.114,0,0,0,1.085,1.369h5.483a1.115,1.115,0,0,0,1.085-1.369Zm-17-11.055h5.446a1.252,1.252,0,0,1,1.248,1.248v9.928a1.251,1.251,0,0,1-1.248,1.248H8.918A1.251,1.251,0,0,1,7.67,61.612V51.684A1.251,1.251,0,0,1,8.918,50.436Zm3.652,9.772a.664.664,0,0,1,0,1.327H10.713a.664.664,0,0,1,0-1.327Zm10.292-14.1a.663.663,0,1,1,0,1.327H21.325a.663.663,0,1,1,0-1.327Zm8.484,9.83V45.993A1.3,1.3,0,0,0,30.052,44.7H14.134a1.3,1.3,0,0,0-1.293,1.293V49.11h1.523a2.582,2.582,0,0,1,2.575,2.575v4.257Z" transform="translate(-7.67 -44.7)" fill="#fff" fill-rule="evenodd"/>
    </g>
  </g>
</svg>
