<svg xmlns="http://www.w3.org/2000/svg" width="16.352" height="20.789" viewBox="0 0 16.352 20.789">
  <g id="Reports" transform="translate(0.25 -2.461)">
    <g id="Minus-file" transform="translate(0 2.711)">
      <path id="Path_34290" data-name="Path 34290" d="M24.3,34.98a.323.323,0,0,0,0,.646h4.438a.323.323,0,0,0,0-.646Z" transform="translate(-18.597 -23.891)" stroke="#000" stroke-width="0.5"/>
      <path id="Path_34291" data-name="Path 34291" d="M22.739,5.007,17.816.093A.328.328,0,0,0,17.587,0H7.981A.978.978,0,0,0,7,.949V19.3a1.018,1.018,0,0,0,.321.7,1.058,1.058,0,0,0,.732.291H21.87a.981.981,0,0,0,.686-.276.957.957,0,0,0,.295-.667V5.231A.338.338,0,0,0,22.739,5.007ZM17.488.671l4.4,4.4H17.476C17.5,2.426,17.5,1.23,17.488.671Zm4.729,18.675a.333.333,0,0,1-.109.219.353.353,0,0,1-.238.091H8.053a.431.431,0,0,1-.284-.1.392.392,0,0,1-.135-.254V.949A.342.342,0,0,1,7.978.635h8.863c.015.8.007,3.2-.01,4.752a.32.32,0,0,0,.1.226.326.326,0,0,0,.229.094h5.061Z" transform="translate(-7)" stroke="#000" stroke-width="0.5"/>
    </g>
  </g>
</svg>
