<svg id="Suspicious_Activity" data-name="Suspicious Activity" xmlns="http://www.w3.org/2000/svg" width="19.406" height="18.077" viewBox="0 0 19.406 18.077">
  <path id="Path_46947" data-name="Path 46947" d="M23.831,21.371,17.422,9.977a3.213,3.213,0,0,0-2.718-1.9,3.213,3.213,0,0,0-2.719,1.9L5.575,21.371a3.291,3.291,0,0,0-.214,3.339,3.291,3.291,0,0,0,3.016,1.449H21.03a3.29,3.29,0,0,0,3.015-1.449A3.29,3.29,0,0,0,23.831,21.371Zm-1.073,2.585a1.92,1.92,0,0,1-1.728.71H8.377a1.922,1.922,0,0,1-1.728-.71A1.92,1.92,0,0,1,6.876,22.1l6.409-11.394c.407-.721.923-1.135,1.419-1.135s1.011.414,1.417,1.135L22.529,22.1A1.922,1.922,0,0,1,22.758,23.957Z" transform="translate(-5 -8.081)"/>
  <path id="Path_46948" data-name="Path 46948" d="M46.427,67.184a.983.983,0,1,0,.983.982A.983.983,0,0,0,46.427,67.184Z" transform="translate(-36.724 -54.44)" fill="red"/>
  <path id="Path_46949" data-name="Path 46949" d="M46.427,34.168a.983.983,0,0,0-.982.982c0,.029.006.055.008.083h0l.392,4.759h0a.586.586,0,0,0,1.169,0h0l.392-4.759H47.4c0-.028.008-.054.008-.083A.983.983,0,0,0,46.427,34.168Z" transform="translate(-36.724 -28.543)" fill="red"/>
</svg>
