<svg xmlns="http://www.w3.org/2000/svg" width="19.977" height="14.005" viewBox="0 0 19.977 14.005">
  <g id="Transactions" transform="translate(-2.012 -5.021)">
    <g id="ic_fluent_payment_24_regular">
      <path id="_-Color" data-name="🎨-Color" d="M19.239,5.021A2.75,2.75,0,0,1,21.984,7.6l.005.168v8.505a2.75,2.75,0,0,1-2.582,2.745l-.168.005H4.761a2.75,2.75,0,0,1-2.745-2.582l-.005-.168V7.771A2.75,2.75,0,0,1,4.594,5.026l.168-.005Zm1.249,5.974H3.51v5.281a1.25,1.25,0,0,0,1.122,1.244l.128.006H19.239A1.25,1.25,0,0,0,20.482,16.4l.006-.128ZM18.253,14.5a.75.75,0,0,1,.1,1.493l-.1.007h-2.5a.75.75,0,0,1-.1-1.493l.1-.007Zm.986-7.979H4.761A1.25,1.25,0,0,0,3.518,7.643l-.006.128V9.495H20.488V7.771a1.25,1.25,0,0,0-1.122-1.244Z" fill="#212121"/>
    </g>
  </g>
</svg>
