<svg xmlns="http://www.w3.org/2000/svg" width="13.826" height="10.388" viewBox="0 0 13.826 10.388">
  <g id="video" transform="translate(0.35 0.35)">
    <g id="video-2" data-name="video" transform="translate(0)">
      <path id="Path_79" data-name="Path 79" d="M117.3,106.4a2.5,2.5,0,0,0-2.5,2.5v4.688a2.5,2.5,0,0,0,2.5,2.5h8.125a2.5,2.5,0,0,0,2.5-2.5V108.9a2.5,2.5,0,0,0-2.5-2.5Zm.175.749h7.837A1.778,1.778,0,0,1,127.2,108.9v4.506a1.945,1.945,0,0,1-1.893,1.951h-7.837a1.92,1.92,0,0,1-1.863-1.951V108.9A1.753,1.753,0,0,1,117.473,107.149Zm2.614,1.751a.313.313,0,0,0-.288.313v4.063h0a.314.314,0,0,0,.474.273l3.438-2.031a.313.313,0,0,0,0-.542l-3.438-2.031h0a.313.313,0,0,0-.186-.044Zm.468,1.109,2.329,1.237-2.329,1.244Z" transform="translate(-114.798 -106.4)" fill="#fff" stroke="#fff" stroke-width="0.7"/>
    </g>
  </g>
</svg>
